<?xml version="1.0" encoding="UTF-8" standalone="no"?>
<svg
   xmlns:dc="http://purl.org/dc/elements/1.1/"
   xmlns:cc="http://creativecommons.org/ns#"
   xmlns:rdf="http://www.w3.org/1999/02/22-rdf-syntax-ns#"
   xmlns:svg="http://www.w3.org/2000/svg"
   xmlns="http://www.w3.org/2000/svg"
   xmlns:sodipodi="http://sodipodi.sourceforge.net/DTD/sodipodi-0.dtd"
   xmlns:inkscape="http://www.inkscape.org/namespaces/inkscape"
   version="1.0"
   width="1124.3104"
   height="648.31049"
   viewBox="0 0 1124.3104 648.31049"
   preserveAspectRatio="xMidYMid meet"
   id="svg18"
   sodipodi:docname="pongPressStart.svg"
   inkscape:version="1.0.2-2 (e86c870879, 2021-01-15)">
  <metadata
     id="metadata24">
    <rdf:RDF>
      <cc:Work
         rdf:about="">
        <dc:format>image/svg+xml</dc:format>
        <dc:type
           rdf:resource="http://purl.org/dc/dcmitype/StillImage" />
      </cc:Work>
    </rdf:RDF>
  </metadata>
  <defs
     id="defs22">
    <filter
       inkscape:collect="always"
       style="color-interpolation-filters:sRGB"
       id="filter973"
       x="-0.0037233236"
       width="1.0074466"
       y="-0.0064925454"
       height="1.0129851">
      <feGaussianBlur
         inkscape:collect="always"
         stdDeviation="1.7313455"
         id="feGaussianBlur975" />
    </filter>
  </defs>
  <sodipodi:namedview
     pagecolor="#ffffff"
     bordercolor="#666666"
     borderopacity="1"
     objecttolerance="10"
     gridtolerance="10"
     guidetolerance="10"
     inkscape:pageopacity="0"
     inkscape:pageshadow="2"
     inkscape:window-width="1920"
     inkscape:window-height="1001"
     id="namedview20"
     showgrid="false"
     inkscape:zoom="0.70710678"
     inkscape:cx="396.83379"
     inkscape:cy="381.83129"
     inkscape:window-x="-9"
     inkscape:window-y="-9"
     inkscape:window-maximized="1"
     inkscape:current-layer="svg18"
     inkscape:document-rotation="0" />
  <g
     fill="#f1c50c"
     id="g10"
     style="fill:#f96400;fill-opacity:1"
     inkscape:export-filename="C:\Users\OMEN\source\repos\PongGame\images\pongPressStart.png"
     inkscape:export-xdpi="96"
     inkscape:export-ydpi="96"
     transform="translate(4.1552291,4.155229)">
    <path
       d="M 0,320 V 0 h 558 558 V 320 640 H 558 0 Z m 774.6,312.9 c 9.2,-2.9 15.2,-6 22,-11.6 12,-9.7 14.3,-13.9 23.4,-42.3 3.9,-12.4 8.7,-27 10.5,-32.5 1.8,-5.5 4.7,-14.7 6.5,-20.5 1.7,-5.8 4.7,-15.2 6.5,-21 1.8,-5.8 6.3,-20.4 10,-32.5 9,-29.6 23.6,-76.5 35.2,-113 8.8,-27.5 12.1,-38.2 18.9,-61 1.3,-4.4 4.4,-14.5 6.8,-22.5 15.6,-51 23.5,-79.2 25,-90.1 1.2,-8.3 -2.8,-20 -9.5,-28.1 -4.6,-5.4 -10.2,-9.1 -16.7,-10.8 -7.6,-2 -76.9,-4 -158.9,-4.7 L 674,141.7 v -3.3 c 0,-1.8 0.5,-3.6 1,-3.9 0.6,-0.4 1,-13.7 1,-36.8 0,-42.6 -1.1,-51.2 -7.5,-63.1 C 658.2,15.7 636.1,3.7 617.6,7.1 c -8.8,1.6 -21,8.1 -27.9,14.8 -7.4,7.1 -13.3,18.3 -14.7,27.8 -0.5,3.8 -1,26 -1,49.6 V 142 l -38.7,0.2 c -21.4,0.1 -40.8,0.3 -43.3,0.4 -2.5,0 -40.7,0.4 -85,0.8 -120.8,1.1 -175.4,2.3 -182.1,3.9 -8.3,2 -14,5.8 -18.3,11.9 -7.6,11.2 -9.7,21.8 -7.2,36.3 2.5,14.4 6.3,27.5 28.9,99.5 5.8,18.4 11,35.1 11.5,37 1.3,4.8 16.9,54.4 24.2,77 3.3,10.2 8.7,27.3 12,38 3.4,10.7 7.4,23.6 9,28.5 1.6,5 8.1,25.9 14.5,46.5 22.5,72.6 26.1,81.8 35.2,92 8.2,9.1 19,15.4 32.5,19 7.1,1.8 14,1.9 203.9,1.9 L 767.8,635 Z M 363.8,107.8 364,81 l 6.8,-0.1 c 9.5,0 19.9,-2.1 25.7,-5.1 7,-3.7 13.8,-11.1 17.6,-19.1 2.6,-5.7 3.2,-8.1 3.1,-13.8 0,-6 -0.5,-8 -3.7,-14.3 -4.4,-8.8 -8.7,-13.2 -17.5,-17.9 -8.3,-4.4 -19.1,-6 -38.5,-5.5 l -14,0.3 -0.3,63.5 c -0.1,34.9 0,64.1 0.3,64.8 0.3,0.9 3,1.2 10.2,1 l 9.8,-0.3 z m 133.6,25.6 c 27,-4.7 49.4,-26.9 54.2,-53.7 1.6,-8.9 1.6,-10.1 0,-18.7 -2.4,-13.4 -9.2,-26.3 -18.3,-35.1 -9.7,-9.4 -22.7,-16.2 -35,-18.4 -8.5,-1.4 -10.1,-1.4 -18.5,0 -19.6,3.4 -38.1,17.3 -47.3,35.6 -9.1,18 -9.1,36.9 0.1,54.9 9,17.8 27.9,32.1 46.9,35.4 4.4,0.8 8.2,1.4 8.5,1.5 0.3,0 4.5,-0.6 9.4,-1.5 z m 270.9,0 c 1.6,-0.5 1.7,-3.1 1.7,-37 V 60 H 753 736 V 70.5 81 h 6.5 6.5 v 15 15 h -3.4 c -9.1,0 -21.2,-10.4 -25.9,-22.2 -5,-12.7 -4.6,-28.2 1.2,-39.7 3.2,-6.2 11.7,-14.8 17.7,-17.9 5.7,-2.8 16.5,-4.6 24.6,-3.9 l 6.9,0.6 L 769.8,17.7 769.5,7.6 765,6.8 c -3,-0.6 -7.7,-0.3 -14,0.7 -26.3,4.4 -49.1,26.7 -53.7,52.4 -3.5,19.9 2.7,38.5 18.2,54.3 6.3,6.5 10,9.3 17.1,13 12.2,6.4 26.2,8.8 35.7,6.2 z"
       id="path2"
       style="fill:#f96400;fill-opacity:1;filter:url(#filter973)" />
    <path
       d="m 590,138.5 c 0,-2.8 0.4,-3.5 2,-3.5 1.9,0 1.9,-1.1 2.2,-43.7 0.3,-43.8 0.3,-43.8 2.7,-48.3 3,-5.8 7.6,-10.6 12.6,-13.3 5.9,-3.1 23,-3.1 29.5,0 5.7,2.7 10.3,7.5 13,13.6 2.1,4.6 2.1,6.3 2.3,51.7 l 0.2,47 H 622.3 590 Z"
       id="path4"
       style="fill:#f96400;fill-opacity:1" />
    <path
       d="M 364,43.5 V 27 h 11.8 c 13.1,0 16.7,1.3 19.7,6.9 2.4,4.7 2,15.7 -0.7,19.7 -3.6,5.2 -7.3,6.4 -19.8,6.4 h -11 z"
       id="path6"
       style="fill:#f96400;fill-opacity:1" />
    <path
       d="M 477.5,112.6 C 455.8,108.2 442.2,86.8 446,63.1 c 3.9,-24.5 21.8,-37.7 48.6,-35.8 25,1.8 41.6,24 37.5,50.5 -4.1,26.2 -26.4,40.5 -54.6,34.8 z"
       id="path8"
       style="fill:#f96400;fill-opacity:1" />
  </g>
  <g
     fill="#000000"
     id="g16"
     transform="translate(7.1552291,1.155229)">
    <path
       d="m 364.2,636 c -13.5,-3.6 -24.3,-9.9 -32.5,-19 -9.1,-10.2 -12.7,-19.4 -35.2,-92 -6.4,-20.6 -12.9,-41.5 -14.5,-46.5 -1.6,-4.9 -5.6,-17.8 -9,-28.5 -3.3,-10.7 -8.7,-27.8 -12,-38 -7.3,-22.6 -22.9,-72.2 -24.2,-77 -0.5,-1.9 -5.7,-18.6 -11.5,-37 -22.8,-72.8 -26.4,-85.2 -28.9,-100 -4.9,-28 5.6,-49.5 26.1,-53.8 9.1,-1.9 50.9,-2.8 184,-3.8 70.4,-0.5 84.23445,-1.34201 82.75504,-2.32587 C 488.95504,137.87413 483.2,137.4 478,136.6 457.5,133.1 439,119.5 429.6,101 c -7.6,-14.8 -9,-29.4 -5,-49.5 1.5,-7.1 9.2,-20 16.6,-27.6 10.6,-10.9 22.7,-17.3 37.2,-19.6 10,-1.6 11.2,-1.6 21.3,0 9.1,1.5 12,2.4 20.2,6.8 13.6,7.3 21.8,15.4 28.1,28 3.5,6.9 5.4,12.1 6.5,18.4 2.1,11 2.1,14.8 0,25.9 -3.7,19.7 -17.2,37.3 -35.6,46.6 -5.9,3 -12,5.29226 -16,5.99226 -9.56809,1.59468 -13.67866,1.61112 -13.54757,2.21543 0.0169,0.0778 0.11175,0.18841 0.26637,0.28945 0.5,0.3 20.7812,0.90286 42.2812,0.70286 L 571,139 V 96.2 c 0,-23.5 0.5,-45.7 1,-49.5 3,-20.7 22.1,-39.2 44.1,-42.8 22,-3.6 44.5,7.6 55.4,27.7 6.5,12.1 7.5,20.3 7.5,65.9 0,29.1 -0.3,39.4 -1.2,40.3 -0.9,0.9 7.9,1.2 39.7,1.2 22.4,0 40.6,-0.3 40.3,-0.6 -0.3,-0.3 -4.8,-1.2 -9.9,-2 -13.7,-2.2 -24.7,-8.1 -35.4,-19.2 C 701.6,106.1 696.3,95.9 693.9,81 692.3,71 692.3,69.9 694,59.5 c 1.5,-9.4 2.5,-12.4 6.5,-20 6.8,-12.7 15.1,-21 28.1,-28 8.6,-4.6 11.5,-5.7 20.2,-7.1 7.8,-1.3 11.8,-1.5 17,-0.8 l 6.7,0.9 0.3,13.8 0.3,13.7 -2.8,-0.4 c -1.5,-0.2 -4.7,-0.7 -7.1,-1.1 -5.3,-0.9 -16.3,1.1 -21.6,3.7 -2.2,1.1 -6.4,4.3 -9.4,7.2 -16.5,15.6 -16.9,41.1 -0.9,57.4 4.1,4.2 11.9,9.2 14.3,9.2 0.2,0 0.4,-5.4 0.4,-12 V 84 H 739.5 733 V 70.5 57 h 20 20 V 96.5 136 l -2.5,0.5 c -1.4,0.3 -3.7,0.8 -5.2,1.2 -1.6,0.4 9.4,1 24.2,1.4 123.1,3.3 124.9,3.4 133.1,7.4 12.8,6.3 21.5,23.5 20,39.6 -1,11.3 -7.6,35.4 -25.2,92.9 -2.4,8 -5.5,18.1 -6.8,22.5 -6.8,22.8 -10.1,33.5 -18.9,61 -11.6,36.5 -26.2,83.4 -35.2,113 -3.7,12.1 -8.2,26.7 -10,32.5 -1.8,5.8 -4.8,15.2 -6.5,21 -1.8,5.8 -4.7,15 -6.5,20.5 -1.8,5.5 -6.6,20.1 -10.5,32.5 -9.1,28.4 -11.4,32.6 -23.4,42.3 -6.8,5.6 -12.8,8.7 -22,11.6 l -6.8,2.1 -199.7,-0.1 c -192.9,0 -199.8,-0.1 -206.9,-1.9 z M 651.3,95.3 C 651,46.5 651,46.3 644.2,38.8 638.8,32.9 633,30.5 624,30.6 c -11.3,0.1 -18.5,4.7 -24.1,15.4 -2.4,4.5 -2.4,4.5 -2.7,48 -0.2,32.4 -0.6,43.6 -1.5,44.2 -0.7,0.4 11.6,0.8 27.3,0.8 h 28.5 z m -155.4,14.6 c 13,-2.3 22.9,-9.5 28.9,-21.4 15.1,-29.7 -10,-63.4 -42.9,-57.5 -21.8,3.9 -36.6,24.9 -32.5,46.1 3.3,17.1 14.9,29.2 31.1,32.5 7.9,1.6 7.8,1.6 15.4,0.3 z"
       id="path12"
       sodipodi:nodetypes="ccccccccccccccccccccccccscccscscssssccccccccccccccccssccccccccccccccccccscsccccccccccccscccccccc" />
    <path
       d="m 340.5,136.8 c -0.3,-0.7 -0.4,-31.2 -0.3,-67.8 l 0.3,-66.5 17,-0.3 c 22.5,-0.4 33,1 41.5,5.5 8.8,4.7 13.1,9.2 17.6,18.1 3.6,7.1 3.8,8 3.8,17.1 0.1,8.8 -0.2,10.2 -3.2,16.6 -3.9,8.2 -10.7,15.6 -17.7,19.3 -5.8,3 -16.2,5.1 -25.7,5.1 l -6.8,0.1 -0.2,26.8 -0.3,26.7 -12.8,0.3 c -9.6,0.2 -12.9,-0.1 -13.2,-1 z m 45.8,-81.4 c 9.5,-4.5 10.3,-18 1.4,-23.4 -2.5,-1.6 -5,-2 -11.9,-2 H 367 V 43.5 57 h 8 c 5.2,0 9.1,-0.5 11.3,-1.6 z"
       id="path14" />
  </g>
</svg>
